<svg width="1600" height="1000" viewBox="0 0 1600 1000" fill="none" xmlns="http://www.w3.org/2000/svg">
  <defs>
    <linearGradient id="bg" x1="0" y1="0" x2="1600" y2="1000" gradientUnits="userSpaceOnUse">
      <stop stop-color="#0F172A"/>
      <stop offset="1" stop-color="#312E81"/>
    </linearGradient>
    <linearGradient id="card" x1="0" y1="0" x2="0" y2="1">
      <stop stop-color="#1E293B" stop-opacity="0.95"/>
      <stop offset="1" stop-color="#111827" stop-opacity="0.95"/>
    </linearGradient>
  </defs>

  <rect width="1600" height="1000" fill="url(#bg)"/>
  <circle cx="1220" cy="140" r="250" fill="#818CF8" fill-opacity="0.22"/>
  <circle cx="260" cy="820" r="280" fill="#38BDF8" fill-opacity="0.14"/>

  <rect x="110" y="80" width="1380" height="840" rx="36" fill="#020617" fill-opacity="0.55" stroke="#A5B4FC" stroke-opacity="0.22"/>

  <rect x="170" y="142" width="220" height="20" rx="10" fill="#A5B4FC" fill-opacity="0.75"/>
  <rect x="1160" y="136" width="110" height="32" rx="16" fill="#1D4ED8"/>
  <rect x="1282" y="136" width="140" height="32" rx="16" fill="#E2E8F0" fill-opacity="0.18"/>

  <rect x="170" y="220" width="760" height="300" rx="24" fill="url(#card)" stroke="#CBD5E1" stroke-opacity="0.15"/>
  <rect x="214" y="268" width="420" height="22" rx="11" fill="#E2E8F0"/>
  <rect x="214" y="306" width="340" height="16" rx="8" fill="#CBD5E1" fill-opacity="0.65"/>
  <rect x="214" y="332" width="300" height="16" rx="8" fill="#CBD5E1" fill-opacity="0.45"/>
  <rect x="214" y="382" width="170" height="44" rx="22" fill="#818CF8"/>
  <rect x="398" y="382" width="180" height="44" rx="22" fill="#E2E8F0" fill-opacity="0.16"/>

  <rect x="976" y="220" width="450" height="300" rx="24" fill="url(#card)" stroke="#CBD5E1" stroke-opacity="0.15"/>
  <rect x="1020" y="266" width="210" height="16" rx="8" fill="#E2E8F0" fill-opacity="0.75"/>
  <rect x="1020" y="302" width="310" height="12" rx="6" fill="#CBD5E1" fill-opacity="0.4"/>
  <rect x="1020" y="330" width="280" height="12" rx="6" fill="#CBD5E1" fill-opacity="0.4"/>
  <rect x="1020" y="370" width="356" height="98" rx="16" fill="#312E81" fill-opacity="0.65"/>

  <rect x="170" y="558" width="1256" height="300" rx="24" fill="url(#card)" stroke="#CBD5E1" stroke-opacity="0.15"/>
  <rect x="214" y="602" width="230" height="14" rx="7" fill="#E2E8F0" fill-opacity="0.7"/>
  <rect x="214" y="640" width="320" height="144" rx="16" fill="#1E293B" stroke="#A5B4FC" stroke-opacity="0.2"/>
  <rect x="556" y="640" width="320" height="144" rx="16" fill="#1E293B" stroke="#A5B4FC" stroke-opacity="0.2"/>
  <rect x="898" y="640" width="320" height="144" rx="16" fill="#1E293B" stroke="#A5B4FC" stroke-opacity="0.2"/>
  <rect x="1240" y="640" width="142" height="144" rx="16" fill="#1E293B" stroke="#A5B4FC" stroke-opacity="0.2"/>

  <text x="170" y="955" fill="#E2E8F0" fill-opacity="0.75" font-family="Inter, sans-serif" font-size="24" letter-spacing="2">B2B SAAS LAUNCH CONCEPT • AESTHETE</text>
</svg>
