<svg width="1600" height="1000" viewBox="0 0 1600 1000" fill="none" xmlns="http://www.w3.org/2000/svg">
  <defs>
    <linearGradient id="bg" x1="0" y1="0" x2="1600" y2="1000" gradientUnits="userSpaceOnUse">
      <stop stop-color="#082F49"/>
      <stop offset="1" stop-color="#0C4A6E"/>
    </linearGradient>
    <linearGradient id="panel" x1="0" y1="0" x2="0" y2="1">
      <stop stop-color="#F8FAFC"/>
      <stop offset="1" stop-color="#E2E8F0"/>
    </linearGradient>
  </defs>

  <rect width="1600" height="1000" fill="url(#bg)"/>
  <circle cx="250" cy="180" r="190" fill="#67E8F9" fill-opacity="0.22"/>
  <circle cx="1300" cy="820" r="260" fill="#22D3EE" fill-opacity="0.18"/>

  <rect x="120" y="70" width="1360" height="860" rx="42" fill="#FFFFFF" fill-opacity="0.12" stroke="#E0F2FE" stroke-opacity="0.28"/>
  <rect x="170" y="120" width="1260" height="760" rx="30" fill="url(#panel)"/>

  <rect x="230" y="176" width="200" height="18" rx="9" fill="#0C4A6E" fill-opacity="0.85"/>
  <rect x="1148" y="166" width="110" height="34" rx="17" fill="#0EA5E9"/>
  <rect x="1270" y="166" width="110" height="34" rx="17" fill="#CBD5E1"/>

  <rect x="230" y="252" width="720" height="300" rx="24" fill="#FFFFFF" stroke="#CBD5E1"/>
  <rect x="274" y="298" width="380" height="20" rx="10" fill="#0F172A"/>
  <rect x="274" y="332" width="320" height="14" rx="7" fill="#334155" fill-opacity="0.62"/>
  <rect x="274" y="356" width="280" height="14" rx="7" fill="#334155" fill-opacity="0.4"/>
  <rect x="274" y="404" width="184" height="44" rx="22" fill="#0284C7"/>
  <rect x="472" y="404" width="174" height="44" rx="22" fill="#E2E8F0"/>

  <rect x="982" y="252" width="398" height="300" rx="24" fill="#ECFEFF" stroke="#BAE6FD"/>
  <rect x="1028" y="298" width="200" height="16" rx="8" fill="#0C4A6E" fill-opacity="0.72"/>
  <rect x="1028" y="334" width="280" height="58" rx="14" fill="#FFFFFF" stroke="#BAE6FD"/>
  <rect x="1028" y="408" width="280" height="58" rx="14" fill="#FFFFFF" stroke="#BAE6FD"/>
  <rect x="1028" y="482" width="280" height="24" rx="12" fill="#0284C7"/>

  <rect x="230" y="588" width="1150" height="236" rx="24" fill="#FFFFFF" stroke="#CBD5E1"/>
  <rect x="274" y="632" width="250" height="14" rx="7" fill="#334155" fill-opacity="0.7"/>
  <rect x="274" y="664" width="324" height="116" rx="16" fill="#F0F9FF" stroke="#BAE6FD"/>
  <rect x="620" y="664" width="324" height="116" rx="16" fill="#F0F9FF" stroke="#BAE6FD"/>
  <rect x="966" y="664" width="370" height="116" rx="16" fill="#F0F9FF" stroke="#BAE6FD"/>

  <text x="170" y="955" fill="#E0F2FE" fill-opacity="0.9" font-family="Inter, sans-serif" font-size="24" letter-spacing="2">CLINIC BOOKING CONCEPT • AESTHETE</text>
</svg>
